<?xml version="1.0" encoding="UTF-8"?>
<svg id="Layer_2" data-name="Layer 2" xmlns="http://www.w3.org/2000/svg" viewBox="0 0 245.68 120.7">
  <defs>
    <style>
      .cls-1 {
        fill: #fff;
      }

      .cls-1, .cls-2 {
        stroke-width: 0px;
      }

      .cls-2 {
        fill: #f05f80;
      }
    </style>
  </defs>
  <g id="Bowtie_Brand" data-name="Bowtie Brand">
    <g>
      <rect class="cls-2" width="245.68" height="120.7" rx="3.64" ry="3.64"/>
      <path class="cls-1" d="M113.87,101.7l-58.73-39.87-5.5-3.51-34.4,16.83V29.26l31.2,18.62,3.65,2.33,63.77-31.21v27.77l-13.25,11.9,13.25,12.13v30.9ZM57.09,54.67l1.98,1.27,47.7,32.38v-14.4l-16.72-15.3,16.72-15.01v-13.25l-49.68,24.31ZM22.33,41.74v22.05l20.31-9.94-20.31-12.12Z"/>
      <g>
        <path class="cls-1" d="M129.18,67.29v-18.55h7.42c1.37,0,2.5.2,3.41.61.91.4,1.6.96,2.06,1.68.46.72.69,1.54.69,2.47,0,.72-.14,1.36-.43,1.91s-.69.99-1.19,1.34-1.08.59-1.73.74v.18c.71.03,1.37.23,1.99.6.62.37,1.12.88,1.51,1.54.39.66.58,1.45.58,2.36,0,.98-.24,1.86-.73,2.63-.49.77-1.2,1.38-2.15,1.82s-2.12.67-3.5.67h-7.92ZM133.1,56.5h2.91c.54,0,1.02-.09,1.44-.29.42-.19.75-.46,1-.81.25-.35.37-.77.37-1.26,0-.67-.24-1.21-.71-1.62s-1.15-.62-2.01-.62h-2.98v4.59ZM133.1,64.08h3.2c1.09,0,1.89-.21,2.39-.63.5-.42.75-.98.75-1.68,0-.51-.12-.97-.37-1.36s-.6-.7-1.06-.92c-.46-.22-1-.33-1.62-.33h-3.29v4.93Z"/>
        <path class="cls-1" d="M163.07,58.01c0,2.02-.38,3.74-1.15,5.16-.76,1.42-1.8,2.5-3.12,3.25s-2.79,1.12-4.42,1.12-3.13-.37-4.44-1.12c-1.31-.75-2.34-1.83-3.11-3.25s-1.14-3.14-1.14-5.15.38-3.74,1.14-5.16c.76-1.42,1.8-2.5,3.11-3.25,1.31-.75,2.79-1.12,4.44-1.12s3.11.37,4.42,1.12,2.35,1.83,3.12,3.25c.76,1.42,1.15,3.14,1.15,5.16ZM159.1,58.01c0-1.31-.2-2.41-.58-3.31s-.94-1.58-1.64-2.05-1.53-.7-2.48-.7-1.77.23-2.48.7c-.71.46-1.25,1.15-1.64,2.05-.39.9-.58,2-.58,3.31s.2,2.42.58,3.31c.39.9.94,1.58,1.64,2.05.71.47,1.53.7,2.48.7s1.78-.23,2.48-.7c.71-.46,1.25-1.15,1.64-2.05s.58-2,.58-3.31Z"/>
        <path class="cls-1" d="M169.45,67.29l-5.31-18.55h4.28l3.07,12.89h.15l3.39-12.89h3.67l3.38,12.91h.16l3.07-12.91h4.28l-5.31,18.55h-3.82l-3.53-12.12h-.15l-3.52,12.12h-3.82Z"/>
        <path class="cls-1" d="M190.98,51.97v-3.23h15.23v3.23h-5.68v15.31h-3.88v-15.31h-5.68Z"/>
        <path class="cls-1" d="M212.65,48.74v18.55h-3.92v-18.55h3.92Z"/>
        <path class="cls-1" d="M215.88,67.29v-18.55h12.5v3.23h-8.58v4.42h7.93v3.23h-7.93v4.43h8.61v3.23h-12.53Z"/>
      </g>
    </g>
  </g>
</svg>
