<?xml version="1.0" encoding="UTF-8" standalone="no"?><!DOCTYPE svg PUBLIC "-//W3C//DTD SVG 1.1//EN" "http://www.w3.org/Graphics/SVG/1.1/DTD/svg11.dtd"><svg width="100%" height="100%" viewBox="0 0 287 90" version="1.1" xmlns="http://www.w3.org/2000/svg" xmlns:xlink="http://www.w3.org/1999/xlink" xml:space="preserve" xmlns:serif="http://www.serif.com/" style="fill-rule:evenodd;clip-rule:evenodd;stroke-linecap:round;stroke-linejoin:round;stroke-miterlimit:1.5;"><rect x="182.442" y="0.375" width="103.503" height="88.823" style="fill:#ebebeb;fill-opacity:0;stroke:#fff;stroke-width:0.75px;"/><rect x="189.607" y="27.697" width="89.667" height="23.507" style="fill:#ebebeb;fill-opacity:0;stroke:#fff;stroke-width:0.75px;"/><text x="201.591px" y="41.017px" style="font-family:'CourierNewPSMT', 'Courier New', monospace;font-size:9px;fill:#fff;">test harness</text><rect x="189.607" y="59.249" width="89.667" height="23.507" style="fill:#ebebeb;fill-opacity:0;stroke:#fff;stroke-width:0.75px;"/><text x="196.511px" y="72.569px" style="font-family:'CourierNewPSMT', 'Courier New', monospace;font-size:9px;fill:#fff;">implementation</text><text x="123.587px" y="31.495px" style="font-family:'CourierNewPSMT', 'Courier New', monospace;font-size:9px;fill:#fff;">commands</text><path d="M184.7,32.851l4.5,2.25l-4.5,2.25c1.125,-1.125 1.125,-3.375 0,-4.5Z" style="fill:#fff;"/><path d="M104.201,35.101l81.399,0" style="fill:none;stroke:#fff;stroke-width:0.75px;"/><text x="127.225px" y="51.802px" style="font-family:'CourierNewPSMT', 'Courier New', monospace;font-size:9px;fill:#fff;">results</text><path d="M108.26,41.954l-4.5,2.25l4.5,2.25c-1.125,-1.125 -1.125,-3.375 0,-4.5Z" style="fill:#fff;"/><path d="M107.36,44.204l82.28,-0" style="fill:none;stroke:#fff;stroke-width:0.75px;"/><g transform="matrix(0.75,0,0,0.75,80.8308,-58.4442)"><text x="154.404px" y="91.637px" style="font-family:'CourierNewPSMT', 'Courier New', monospace;font-size:12px;fill:#fff;">implementation</text><text x="172.407px" y="103.637px" style="font-family:'CourierNewPSMT', 'Courier New', monospace;font-size:12px;fill:#fff;">container</text></g><rect x="0.375" y="22.74" width="103.503" height="32.6" style="fill:#ebebeb;fill-opacity:0;stroke:#fff;stroke-width:0.75px;"/><text x="35.537px" y="39.438px" style="font-family:'CourierNewPSMT', 'Courier New', monospace;font-size:9px;fill:#fff;">bowtie</text><path d="M234.44,51.491l-0,7.37" style="fill:none;stroke:#fff;stroke-width:0.75px;"/></svg>
